<svg id="Layer_1" data-name="Layer 1" xmlns="http://www.w3.org/2000/svg" xmlns:xlink="http://www.w3.org/1999/xlink" viewBox="0 0 850 234.3"><defs><style>.cls-1{fill:none;}.cls-2{clip-path:url(#clip-path);}.cls-3{fill:url(#linear-gradient);}.cls-4{fill:url(#linear-gradient-2);}.cls-5{fill:#fff;}</style><clipPath id="clip-path" transform="translate(-25 -32.85)"><rect class="cls-1" x="25" y="32.85" width="267.82" height="229.56"/></clipPath><linearGradient id="linear-gradient" x1="-121.65" y1="215.45" x2="65.05" y2="202.3" gradientTransform="matrix(1, 0, 0, -1, 144, 356)" gradientUnits="userSpaceOnUse"><stop offset="0" stop-color="#fe7b59"/><stop offset="0.48" stop-color="#fe497a"/><stop offset="1" stop-color="#fd169c"/></linearGradient><linearGradient id="linear-gradient-2" x1="-49.33" y1="229.19" x2="150.6" y2="203.72" gradientTransform="matrix(1, 0, 0, -1, 144, 356)" gradientUnits="userSpaceOnUse"><stop offset="0" stop-color="#fe2493"/><stop offset="1" stop-color="#063ef9"/></linearGradient></defs><g class="cls-2"><path class="cls-3" d="M172.08,58.17,207,93.22l-25.12,25.24L147,83.41a50.54,50.54,0,0,0-71.64,0,51.12,51.12,0,0,0,0,72l81.41,81.79-25.12,25.24L50.2,180.62a87,87,0,0,1,0-122.45A86,86,0,0,1,172.08,58.17Z" transform="translate(-25 -32.85)"/><path class="cls-4" d="M287.62,80.43a17.88,17.88,0,0,1,5.2,12.62,18,18,0,0,1-1.35,6.83,17.74,17.74,0,0,1-3.85,5.78L181.21,212.57,101,132a17.9,17.9,0,0,1,0-25.23,17.7,17.7,0,0,1,25.12,0l55.13,55.38L262.5,80.43a17.7,17.7,0,0,1,25.12,0Z" transform="translate(-25 -32.85)"/></g><path class="cls-5" d="M435.74,175.84c-.64-44.47-65.22-31-65.22-50,0-5.78,4.7-9.2,13.26-9.2,10.26,0,16.46,5.35,17.53,13.47H435.1c-2.35-23.52-19.46-40.63-50.25-40.63-31.22,0-48.54,16.68-48.54,37,0,43.83,65,29.93,65,49.18,0,5.35-4.92,9.62-14.32,9.62-10.06,0-17.54-5.56-18.39-13.9H332.46c1.71,23.1,23.09,40.85,55,40.85C417.35,212.2,435.74,196.59,435.74,175.84Z" transform="translate(-25 -32.85)"/><path class="cls-5" d="M455.51,169c0,31,17.31,41.48,42.12,41.48h18.6v-31h-13c-8.12,0-11.12-3-11.12-10v-47.9H516V91.17H492.07V62.08H455.51V91.17H441v30.36h14.55Z" transform="translate(-25 -32.85)"/><path class="cls-5" d="M645,150.83c0-37.85-27-61.38-62-61.38-34.86,0-62,23.53-62,61.38s26.52,61.37,61.59,61.37S645,188.67,645,150.83Zm-86.82,0c0-20.32,11.55-29.73,24.81-29.73,12.82,0,24.8,9.41,24.8,29.73,0,20.1-12.19,29.72-25.23,29.72C569.28,180.55,558.16,170.93,558.16,150.83Z" transform="translate(-25 -32.85)"/><path class="cls-5" d="M692.56,155.1c0-20.53,10.05-26.51,27.37-26.51H730V89.88c-16,0-29.08,8.56-37.42,21.17V91.17H656V210.48h36.56Z" transform="translate(-25 -32.85)"/><path class="cls-5" d="M808.07,165.79,780.48,91.17H739.64l48.54,115.25-27.37,60.73h39.35L875,91.17H835.44Z" transform="translate(-25 -32.85)"/></svg>